<svg xmlns="http://www.w3.org/2000/svg" viewBox="0 0 16 16"><path fill-rule="evenodd" d="M10.178 1.127a.75.75 0 0 0-.804-.032l-3.124 1.811-3.113-1.802a.75.75 0 0 0-.46-.104.75.75 0 0 0-.303.097.75.75 0 0 0-.232.21.75.75 0 0 0-.142.452v10.452a.75.75 0 0 0 .399.678l3.446 1.999a.75.75 0 0 0 .528.107.8.8 0 0 0 .281-.107l3.096-1.796 3.112 1.805a.75.75 0 0 0 1.14-.64v-10.48a.75.75 0 0 0-.409-.669zm-1.178 10.666v-8.747l-2 1.159v8.748zm3.502 1.161-2.002-1.161v-8.745l2.002 1.161zm-7.001-8.748v8.748l-2.001-1.16v-8.747z"/></svg>