<svg xmlns="http://www.w3.org/2000/svg" viewBox="0 0 16 16"><path d="M8 8.75a2.25 2.25 0 0 0-2.25 2.25.75.75 0 0 1-1.5 0 3.75 3.75 0 0 1 5.952-3.036l.291-.267a.75.75 0 0 1 1.014 1.106l-.291.267c.339.564.534 1.224.534 1.93a.75.75 0 0 1-1.5 0c0-.313-.064-.61-.179-.881l-1.564 1.434a.75.75 0 0 1-1.014-1.106l1.564-1.434a2.24 2.24 0 0 0-1.057-.263"/><path fill-rule="evenodd" d="M2.25 1a.75.75 0 0 1 .75.75c0 .138.112.25.25.25h9.5a.25.25 0 0 0 .25-.25.75.75 0 0 1 1.5 0 1.75 1.75 0 0 1-1.75 1.75h-4v1h3.5a2.25 2.25 0 0 1 2.25 2.25v5.5a2.25 2.25 0 0 1-2.25 2.25h-8.5a2.25 2.25 0 0 1-2.25-2.25v-5.5a2.25 2.25 0 0 1 2.25-2.25h3.5v-1h-4a1.75 1.75 0 0 1-1.75-1.75.75.75 0 0 1 .75-.75m1.5 5a.75.75 0 0 0-.75.75v5.5c0 .414.336.75.75.75h8.5a.75.75 0 0 0 .75-.75v-5.5a.75.75 0 0 0-.75-.75z"/></svg>