<svg xmlns="http://www.w3.org/2000/svg" viewBox="0 0 16 16"><path d="M8.25 5a.75.75 0 0 1 .75-.75h3.69l-.72-.72a.749.749 0 1 1 1.06-1.06l2 2a.747.747 0 0 1 0 1.06l-2 2a.749.749 0 1 1-1.06-1.06l.72-.72h-3.69a.75.75 0 0 1-.75-.75"/><path d="M5.25 3.25a.75.75 0 0 0-1.5 0v.75h-.375a2.375 2.375 0 1 0 0 4.75h1.28a.874.874 0 1 1-.001 1.75h-2.904a.75.75 0 0 0 0 1.5h1v.75a.75.75 0 0 0 1.5 0v-.75h.404a2.375 2.375 0 1 0 0-4.75h-1.279a.875.875 0 0 1 0-1.75h2.904a.75.75 0 1 0 0-1.5h-1.029z"/><path d="M10.81 11.75h3.69a.75.75 0 0 0 0-1.5h-3.69l.72-.72a.749.749 0 1 0-1.06-1.06l-2 2a.75.75 0 0 0 0 1.06l2 2a.749.749 0 1 0 1.06-1.06z"/></svg>