<svg xmlns="http://www.w3.org/2000/svg" viewBox="0 0 16 16"><path d="M8.965 9.238a1 1 0 0 1 .035.262v.5a1 1 0 0 1-2 0v-.5q0-.136.035-.262a12.7 12.7 0 0 1-3.278-.69l-.257-.09a.752.752 0 0 1 .5-1.415l.256.09a11.25 11.25 0 0 0 7.488 0l.256-.09a.75.75 0 1 1 .5 1.414l-.257.09a12.6 12.6 0 0 1-3.278.69Z"/><path fill-rule="evenodd" d="M4.5 3.5v-.25a2.25 2.25 0 0 1 2.25-2.25h2.5a2.25 2.25 0 0 1 2.25 2.25v.25h.25a3.25 3.25 0 0 1 3.25 3.25v5a3.25 3.25 0 0 1-3.25 3.25h-7.5a3.25 3.25 0 0 1-3.25-3.25v-5a3.25 3.25 0 0 1 3.25-3.25zm1.5-.25a.75.75 0 0 1 .75-.75h2.5a.75.75 0 0 1 .75.75v.25h-4zm-1.75 1.75a1.75 1.75 0 0 0-1.75 1.75v5c0 .966.784 1.75 1.75 1.75h7.5a1.75 1.75 0 0 0 1.75-1.75v-5a1.75 1.75 0 0 0-1.75-1.75z"/></svg>