<svg xmlns="http://www.w3.org/2000/svg" viewBox="0 0 16 16"><path fill-rule="evenodd" d="M1 8a7 7 0 1 1 14 0 7 7 0 0 1-14 0m7-5.5a5.5 5.5 0 0 0-4.737 2.703l2 1.999c.472.472.737 1.112.737 1.78v.518a.5.5 0 0 0 .5.5 2 2 0 0 1 2 2v1.478a5.5 5.5 0 0 0 4.52-3.228h-1.02a.75.75 0 0 1-.53-.22.75.75 0 0 1-.22-.53v-.5a.75.75 0 0 0-.75-.75h-2.5a1.755 1.755 0 0 1-1.07-3.144l.463-.356a.4.4 0 0 0 .152-.312v-.04c0-.885.62-1.624 1.449-1.808a5.4 5.4 0 0 0-.994-.09m2.875.81a1.85 1.85 0 0 1-1.477.735.353.353 0 0 0-.353.353v.04c0 .587-.272 1.14-.736 1.499l-.462.356a.255.255 0 0 0 .153.457h2.5a2.25 2.25 0 0 1 2.236 2h.713q.051-.368.051-.75a5.5 5.5 0 0 0-2.625-4.69m-8.375 4.69q.001-.667.152-1.288l1.55 1.55c.19.191.298.45.298.72v.518a2 2 0 0 0 2 2 .5.5 0 0 1 .5.5v1.41a5.5 5.5 0 0 1-4.5-5.41"/></svg><svg xmlns="http://www.w3.org/2000/svg" viewBox="0 0 12 12"><path fill-rule="evenodd" d="M1.885 4.933a4.25 4.25 0 0 0 3.409 5.259q.03-.135.052-.289a2.3 2.3 0 0 0 .02-.534c-.016-.163-.056-.247-.083-.282-.026-.035-.048-.064-.353-.104l-.047-.006c-.263-.033-.758-.095-1.136-.51-.427-.47-.449-.989-.451-1.342v-.093c-.002-.317-.003-.478-.09-.654-.168-.347-.543-.756-.93-1.108a9 9 0 0 0-.39-.337m4.678 5.28.02-.136c.036-.249.057-.543.027-.836-.03-.288-.114-.625-.333-.913-.365-.478-.884-.545-1.158-.581l-.026-.003c-.326-.043-.375-.067-.421-.118-.096-.106-.124-.209-.126-.509v-.095c.002-.286.005-.74-.216-1.192-.28-.574-.807-1.116-1.21-1.484a11 11 0 0 0-.72-.599l-.003-.002a4.25 4.25 0 0 1 4.687-1.856c-.64.087-1.34.49-1.558 1.255l-.113.395-.23.38c-.42.695-.25 1.719.607 2.105.623.28 1.384.367 1.937.418l.274.024c.17.014.31.026.431.041l.077.011.009.016a.4.4 0 0 1-.012.062v.002q-.007.029-.014.07a.91.91 0 0 0 .311.904c.216.19.498.236.644.255.127.016.258.021.381.02a4.25 4.25 0 0 1-3.265 2.366m3.648-3.635a4.25 4.25 0 0 0-1.769-4.056c-.143.23-.359.364-.53.44a2.3 2.3 0 0 1-.648.164c-.312.038-.493.21-.536.362l-.13.457a.8.8 0 0 1-.082.186l-.263.434a.28.28 0 0 0-.035.211.15.15 0 0 0 .086.108c.408.185.973.262 1.536.313l.233.02c.186.016.37.032.518.05.107.014.225.033.333.063.08.021.28.08.433.248.184.202.311.413.372.641.038.143.044.271.038.378q.08.001.173-.001c.096-.004.19-.01.271-.018m-1.62-.043q.029.008 0 0m-2.591 4.965a5.5 5.5 0 1 0 0-11 5.5 5.5 0 0 0 0 11"/></svg>